<?xml version="1.0" encoding="UTF-8" standalone="no"?>
<!-- Created with Inkscape (http://www.inkscape.org/) -->

<svg
   version="1.1"
   id="svg1"
   width="880"
   height="880"
   viewBox="0 0 880 880"
   sodipodi:docname="golden-coin-with-dollar-symbol.svg"
   inkscape:version="1.3.2 (091e20e, 2023-11-25, custom)"
   xmlns:inkscape="http://www.inkscape.org/namespaces/inkscape"
   xmlns:sodipodi="http://sodipodi.sourceforge.net/DTD/sodipodi-0.dtd"
   xmlns="http://www.w3.org/2000/svg"
   xmlns:svg="http://www.w3.org/2000/svg">
  <defs
     id="defs1">
    <clipPath
       clipPathUnits="userSpaceOnUse"
       id="clipPath4">
      <path
         d="M 0,660 H 660 V 0 H 0 Z"
         transform="translate(-358.43551,-95.9707)"
         id="path4" />
    </clipPath>
    <clipPath
       clipPathUnits="userSpaceOnUse"
       id="clipPath6">
      <path
         d="M 0,660 H 660 V 0 H 0 Z"
         transform="translate(-329.99951,-501.47512)"
         id="path6" />
    </clipPath>
    <clipPath
       clipPathUnits="userSpaceOnUse"
       id="clipPath8">
      <path
         d="M 0,660 H 660 V 0 H 0 Z"
         transform="translate(-329.99951,-529.03762)"
         id="path8" />
    </clipPath>
    <clipPath
       clipPathUnits="userSpaceOnUse"
       id="clipPath10">
      <path
         d="M 0,660 H 660 V 0 H 0 Z"
         transform="translate(-329.99951,-520.73101)"
         id="path10" />
    </clipPath>
    <clipPath
       clipPathUnits="userSpaceOnUse"
       id="clipPath12">
      <path
         d="M 0,660 H 660 V 0 H 0 Z"
         transform="translate(-470.03031,-451.31101)"
         id="path12" />
    </clipPath>
    <clipPath
       clipPathUnits="userSpaceOnUse"
       id="clipPath14">
      <path
         d="M 0,660 H 660 V 0 H 0 Z"
         transform="translate(-455.67771,-219.10551)"
         id="path14" />
    </clipPath>
    <clipPath
       clipPathUnits="userSpaceOnUse"
       id="clipPath16">
      <path
         d="M 0,660 H 660 V 0 H 0 Z"
         transform="translate(-329.99951,-498.41161)"
         id="path16" />
    </clipPath>
    <clipPath
       clipPathUnits="userSpaceOnUse"
       id="clipPath18">
      <path
         d="M 0,660 H 660 V 0 H 0 Z"
         transform="translate(-459.69631,-427.15231)"
         id="path18" />
    </clipPath>
    <clipPath
       clipPathUnits="userSpaceOnUse"
       id="clipPath20">
      <path
         d="M 0,660 H 660 V 0 H 0 Z"
         transform="translate(-410.27441,-475.78761)"
         id="path20" />
    </clipPath>
    <clipPath
       clipPathUnits="userSpaceOnUse"
       id="clipPath22">
      <path
         d="M 0,660 H 660 V 0 H 0 Z"
         transform="translate(-287.49271,-390.15581)"
         id="path22" />
    </clipPath>
    <clipPath
       clipPathUnits="userSpaceOnUse"
       id="clipPath24">
      <path
         d="M 0,660 H 660 V 0 H 0 Z"
         transform="translate(-329.99951,-498.41161)"
         id="path24" />
    </clipPath>
    <clipPath
       clipPathUnits="userSpaceOnUse"
       id="clipPath26">
      <path
         d="M 0,660 H 660 V 0 H 0 Z"
         transform="translate(-327.03221,-225.37111)"
         id="path26" />
    </clipPath>
    <clipPath
       clipPathUnits="userSpaceOnUse"
       id="clipPath28">
      <path
         d="M 0,660 H 660 V 0 H 0 Z"
         transform="translate(-319.85691,-232.16601)"
         id="path28" />
    </clipPath>
    <clipPath
       clipPathUnits="userSpaceOnUse"
       id="clipPath30">
      <path
         d="M 0,660 H 660 V 0 H 0 Z"
         transform="translate(-304.07421,-295.7764)"
         id="path30" />
    </clipPath>
    <clipPath
       clipPathUnits="userSpaceOnUse"
       id="clipPath32">
      <path
         d="M 0,660 H 660 V 0 H 0 Z"
         transform="translate(-374.64261,-277.81351)"
         id="path32" />
    </clipPath>
    <clipPath
       clipPathUnits="userSpaceOnUse"
       id="clipPath34">
      <path
         d="M 0,660 H 660 V 0 H 0 Z"
         transform="translate(-182.8384,-290.64261)"
         id="path34" />
    </clipPath>
  </defs>
  <sodipodi:namedview
     id="namedview1"
     pagecolor="#ffffff"
     bordercolor="#000000"
     borderopacity="0.25"
     inkscape:showpageshadow="2"
     inkscape:pageopacity="0.0"
     inkscape:pagecheckerboard="0"
     inkscape:deskcolor="#d1d1d1"
     inkscape:zoom="0.67272727"
     inkscape:cx="439.25676"
     inkscape:cy="440"
     inkscape:window-width="1440"
     inkscape:window-height="830"
     inkscape:window-x="-6"
     inkscape:window-y="-6"
     inkscape:window-maximized="1"
     inkscape:current-layer="g1">
    <inkscape:page
       x="0"
       y="0"
       inkscape:label="1"
       id="page1"
       width="880"
       height="880"
       margin="1.3333334 0 0"
       bleed="0" />
  </sodipodi:namedview>
  <g
     id="g1"
     inkscape:groupmode="layer"
     inkscape:label="1">
    <g
       id="group-MC0">
      <path
         id="path2"
         d="M 0,1 H 660 V 660 H 0 Z"
         style="fill:#2f2825;fill-opacity:1;fill-rule:nonzero;stroke:none"
         transform="matrix(1.3333333,0,0,-1.3333333,0,880)" />
      <path
         id="path3"
         d="m 0,0 c 103.613,0 188.12,84.507 188.12,188.119 0,103.613 -84.507,188.119 -188.12,188.119 -103.612,0 -188.12,-84.506 -188.12,-188.119 C -188.12,84.507 -103.612,0 0,0"
         style="fill:#110f0d;fill-opacity:1;fill-rule:evenodd;stroke:none"
         transform="matrix(1.3333333,0,0,-1.3333333,477.914,752.03907)"
         clip-path="url(#clipPath4)" />
      <path
         id="path5"
         d="m 0,0 c 101.762,0 184.256,-82.495 184.256,-184.256 0,-101.764 -82.494,-184.257 -184.256,-184.257 -101.761,0 -184.256,82.493 -184.256,184.257 C -184.256,-82.495 -101.761,0 0,0"
         style="fill:#ee9711;fill-opacity:1;fill-rule:evenodd;stroke:none"
         transform="matrix(1.3333333,0,0,-1.3333333,439.99933,211.36653)"
         clip-path="url(#clipPath6)" />
      <path
         id="path7"
         d="m 0,0 c 101.762,0 184.256,-82.495 184.256,-184.256 0,-101.763 -82.494,-184.256 -184.256,-184.256 -101.761,0 -184.256,82.493 -184.256,184.256 C -184.256,-82.495 -101.761,0 0,0"
         style="fill:#fae53c;fill-opacity:1;fill-rule:evenodd;stroke:none"
         transform="matrix(1.3333333,0,0,-1.3333333,439.99933,174.61653)"
         clip-path="url(#clipPath8)" />
      <path
         id="path9"
         d="M 0,0 C 97.175,0 175.95,-78.775 175.95,-175.95 175.95,-273.125 97.175,-351.9 0,-351.9 c -97.174,0 -175.949,78.775 -175.949,175.95 C -175.949,-78.775 -97.174,0 0,0"
         style="fill:#fbca07;fill-opacity:1;fill-rule:evenodd;stroke:none"
         transform="matrix(1.3333333,0,0,-1.3333333,439.99933,185.692)"
         clip-path="url(#clipPath10)" />
      <path
         id="path11"
         d="m 0,0 -230.854,-257.251 c 23.39,-14.123 50.336,-22.951 79.176,-24.835 L 33.272,-75.99 C 28.333,-47.776 16.672,-21.877 0,0 m -51.471,45.53 -230.172,-256.488 c 9.789,-13.249 21.392,-25.075 34.442,-35.112 L -12.86,15.064 c -11.348,11.865 -24.341,22.14 -38.611,30.466 m -71.626,23.075 c 13.29,-1.272 26.149,-4.017 38.411,-8.077 l -215.459,-240.094 c -5.386,11.789 -9.51,24.274 -12.198,37.287 z"
         style="fill:#f9dc1b;fill-opacity:1;fill-rule:evenodd;stroke:none"
         transform="matrix(1.3333333,0,0,-1.3333333,626.70707,278.252)"
         clip-path="url(#clipPath12)" />
      <path
         id="path13"
         d="M 0,0 C 33.487,33.488 52.482,78.487 50.272,125.676 50.272,77.58 28.994,34.039 -2.522,2.522 -34.041,-28.996 -77.301,-49.048 -125.678,-50.274 -78.43,-51.122 -33.49,-33.49 0,0 m -282.69,42.318 c -13.227,24.862 -20.722,53.237 -20.722,83.358 0,49.079 19.895,93.513 52.058,125.677 33.489,33.488 78.059,52.367 125.676,50.272 -48.094,0 -91.636,-21.277 -123.153,-52.795 -31.519,-31.518 -51.013,-75.06 -51.013,-123.154 0,-29.521 7.344,-57.326 20.303,-81.686 13.448,-25.278 32.936,-46.765 55.558,-64.263 -24.151,15.576 -44.983,36.794 -58.707,62.591"
         style="fill:#fbf687;fill-opacity:1;fill-rule:evenodd;stroke:none"
         transform="matrix(1.3333333,0,0,-1.3333333,607.57027,587.85933)"
         clip-path="url(#clipPath14)" />
      <path
         id="path15"
         d="m 0,0 c 84.848,0 153.629,-68.783 153.629,-153.63 0,-84.848 -68.781,-153.63 -153.629,-153.63 -84.847,0 -153.63,68.782 -153.63,153.63 C -153.63,-68.783 -84.847,0 0,0"
         style="fill:#ee9711;fill-opacity:1;fill-rule:evenodd;stroke:none"
         transform="matrix(1.3333333,0,0,-1.3333333,439.99933,215.4512)"
         clip-path="url(#clipPath16)" />
      <path
         id="path17"
         d="m 0,0 -197.607,-220.202 c 20.478,-10.11 43.527,-15.799 67.91,-15.799 6.991,0 13.872,0.477 20.614,1.382 L 23.879,-86.457 c 0.034,1.358 0.054,2.72 0.054,4.086 C 23.933,-52.062 15.152,-23.804 0,0 m -48.95,48.34 -201.982,-225.074 c 10.11,-12.967 22.252,-24.273 35.951,-33.432 L -11.853,16.187 C -22.398,28.779 -34.923,39.658 -48.95,48.34 m -71.992,22.665 c 13.566,-0.765 26.663,-3.288 39.065,-7.347 l -187.846,-209.323 c -5.405,11.941 -9.319,24.7 -11.525,38.036 z"
         style="fill:#f7a10e;fill-opacity:1;fill-rule:evenodd;stroke:none"
         transform="matrix(1.3333333,0,0,-1.3333333,612.9284,310.4636)"
         clip-path="url(#clipPath18)" />
      <path
         id="path19"
         d="m 0,0 c 44.004,-27.022 73.354,-75.583 73.354,-131.006 0,-84.848 -68.781,-153.63 -153.629,-153.63 -15.855,0 -31.15,2.404 -45.54,6.863 -15.838,27.546 -24.896,59.484 -24.896,93.538 C -150.711,-93.188 -85.961,-17.27 0,0"
         style="fill:#f7a10e;fill-opacity:1;fill-rule:evenodd;stroke:none"
         transform="matrix(1.3333333,0,0,-1.3333333,547.03253,245.61653)"
         clip-path="url(#clipPath20)" />
      <path
         id="path21"
         d="M 0,0 44.638,49.742 C 26.965,35.978 11.815,19.13 0,0 M 172.207,36.997 -13.785,-170.258 c 3.119,-7.555 6.714,-14.863 10.752,-21.883 14.39,-4.459 29.685,-6.863 45.54,-6.863 6.99,0 13.871,0.476 20.614,1.381 l 132.962,148.162 c 0.034,1.359 0.053,2.721 0.053,4.086 0,30.31 -8.777,58.568 -23.929,82.372 m -48.954,48.34 c 14.028,-8.684 26.552,-19.561 37.098,-32.154 L -21.093,-149.005 c -4.455,16.04 -6.837,32.942 -6.837,50.402 0,5.474 0.24,10.893 0.699,16.249 z"
         style="fill:#fab81a;fill-opacity:1;fill-rule:evenodd;stroke:none"
         transform="matrix(1.3333333,0,0,-1.3333333,383.3236,359.79227)"
         clip-path="url(#clipPath22)" />
      <path
         id="path23"
         d="m 0,0 c 41.581,0 79.296,-16.526 106.957,-43.36 -26.124,20.538 -59.068,32.787 -94.875,32.787 -84.847,0 -153.629,-68.782 -153.629,-153.629 0,-43.268 17.893,-82.351 46.674,-110.271 -35.777,28.127 -58.757,71.801 -58.757,120.843 C -153.63,-68.783 -84.847,0 0,0"
         style="fill:#b5721d;fill-opacity:1;fill-rule:evenodd;stroke:none"
         transform="matrix(1.3333333,0,0,-1.3333333,439.99933,215.4512)"
         clip-path="url(#clipPath24)" />
      <path
         id="path25"
         d="m 0,0 h 25.553 v 27.396 c 27.132,5.795 41.092,25.289 41.092,50.578 0,50.314 -69.543,48.206 -69.543,73.232 0,11.854 6.849,16.859 19.494,16.859 11.063,0 19.229,-4.478 28.714,-13.171 l 19.493,22.127 c -10.275,10.801 -22.392,19.23 -39.25,21.602 v 26.606 H 0 v -27.133 c -24.762,-5.005 -40.041,-22.918 -40.041,-48.734 0,-47.416 69.544,-46.89 69.544,-74.023 0,-12.116 -6.585,-18.176 -21.337,-18.176 -12.645,0 -24.235,5.268 -37.67,15.278 L -46.363,46.362 C -33.981,35.034 -15.543,28.186 0,26.343 Z"
         style="fill:#b5721d;fill-opacity:1;fill-rule:evenodd;stroke:none"
         transform="matrix(1.3333333,0,0,-1.3333333,436.04293,579.5052)"
         clip-path="url(#clipPath26)" />
      <path
         id="path27"
         d="m 0,0 h 25.553 v 27.396 c 27.133,5.797 41.094,25.291 41.094,50.579 0,50.315 -69.544,48.207 -69.544,73.232 0,11.854 6.85,16.86 19.493,16.86 11.065,0 19.231,-4.479 28.714,-13.172 l 19.493,22.128 c -10.273,10.801 -22.39,19.23 -39.25,21.601 V 225.23 H 0 v -27.133 c -24.761,-5.005 -40.039,-22.918 -40.039,-48.734 0,-47.416 69.543,-46.889 69.543,-74.022 0,-12.118 -6.585,-18.176 -21.338,-18.176 -12.643,0 -24.235,5.268 -37.669,15.277 L -46.362,46.363 C -33.981,35.036 -15.541,28.188 0,26.343 Z"
         style="fill:#fbca07;fill-opacity:1;fill-rule:evenodd;stroke:none"
         transform="matrix(1.3333333,0,0,-1.3333333,426.47587,570.44533)"
         clip-path="url(#clipPath28)" />
      <path
         id="path29"
         d="m 0,0 -21.606,-24.078 c -3.221,2.056 -6.245,4.335 -8.974,6.831 L -13.72,8.832 C -8.958,5.285 -4.428,2.333 0,0 M 5.259,131.361 C -8.784,125.698 -18.518,114.98 -22.391,100.549 Z M 32.412,161.62 H 15.783 v -18.532 z m -4.879,-57.449 c 1.505,0.191 3.121,0.285 4.846,0.285 11.064,0 19.23,-4.479 28.714,-13.171 l 19.493,22.128 c -7.792,8.191 -16.646,15.018 -27.823,18.873 z M 52.132,58.091 28.491,31.75 C 15.378,39.195 -2.442,45.988 -13.647,58.285 l 26.535,29.568 -0.002,-0.256 c 0,-13.589 20.505,-19.179 39.246,-29.506 M 15.783,-63.61 h 25.553 v 27.396 c 27.133,5.797 41.094,25.29 41.094,50.578 0,14.544 -5.816,24.702 -14.077,32.407 L 43.408,18.975 c 1.204,-2.198 1.879,-4.587 1.879,-7.245 0,-12.118 -6.586,-18.175 -21.338,-18.175 -1.089,0 -2.171,0.039 -3.247,0.118 L -3.125,-32.879 c 6.39,-2.198 12.868,-3.672 18.908,-4.389 z"
         style="fill:#f9dc1b;fill-opacity:1;fill-rule:evenodd;stroke:none"
         transform="matrix(1.3333333,0,0,-1.3333333,405.43227,485.63147)"
         clip-path="url(#clipPath30)" />
      <path
         id="path31"
         d="m 0,0 c -7.552,-9.295 -17.463,-15.736 -29.232,-18.251 13.959,1.721 24.234,7.871 31.301,16.568 7.383,9.088 11.131,20.786 11.131,34.01 0,12.274 -4.028,21.528 -10.173,28.848 -6.088,7.249 -14.234,12.551 -22.577,17.002 -3.924,2.093 -7.894,3.999 -11.712,5.83 -13.538,6.498 -26.421,12.039 -26.421,21.552 -1.793,-13.346 15.623,-19.325 25.272,-23.956 3.782,-1.814 7.716,-3.703 11.604,-5.777 8.085,-4.313 15.96,-9.43 21.785,-16.366 C 6.745,52.593 10.524,43.892 10.524,32.327 10.524,19.713 6.982,8.592 0,0 m -54.786,179.583 24.086,-1.341 1.468,-25.266 0.985,27.342 z m 25.554,-225.231 -26.539,-0.735 0.985,27.343 1.469,-25.266 z M -54.786,152.45 c -10.523,-3.126 -21.691,-9.394 -28.413,-17.578 -6.629,-8.067 -10.288,-18.651 -10.288,-31.156 0,-26.178 22.146,-37.433 41.221,-47.127 15.078,-7.663 28.323,-14.394 28.323,-26.896 0,-6.458 -1.797,-11.337 -5.602,-14.64 -3.744,-3.249 -9.366,-4.874 -17.075,-4.874 -6.5,0 -12.727,1.353 -19.05,3.99 -6.615,2.759 -12.989,7.472 -18.619,12.626 6.692,-4.681 13.592,-7.635 19.644,-10.159 5.992,-2.499 11.884,-3.782 18.025,-3.782 7.046,0 12.093,1.407 15.33,4.215 3.173,2.754 4.67,6.965 4.67,12.624 0,10.867 -12.554,17.249 -26.848,24.513 -19.756,10.04 -42.696,21.697 -42.696,49.51 0,13.137 3.879,24.298 10.905,32.849 8.24,10.031 19.757,14.492 30.473,15.885"
         style="fill:#fbf687;fill-opacity:1;fill-rule:evenodd;stroke:none"
         transform="matrix(1.3333333,0,0,-1.3333333,499.52347,509.582)"
         clip-path="url(#clipPath32)" />
      <path
         id="path33"
         d="M 0,0 C 14.279,-38.907 43.029,-70.534 81.313,-86.131 43.121,-68.447 16.369,-35.542 2.931,1.075 -10.508,37.692 -10.523,79.417 6.29,118.284 -11.757,81.078 -14.28,38.906 0,0 m 137.55,208.918 c 24.606,1.362 49.893,-3.119 73.812,-14.195 38.972,-18.047 66.941,-50.183 80.656,-87.549 14.279,-38.907 12.883,-81.241 -6.291,-118.283 17.687,38.19 16.8,80.59 3.36,117.207 -13.438,36.617 -40.847,68.107 -79.038,85.792 -23.44,10.854 -48.22,15.247 -72.33,13.913 -25.016,-1.384 -49.246,-8.958 -71.457,-20.488 21.248,13.451 45.756,22.191 71.288,23.603"
         style="fill:#fbf687;fill-opacity:1;fill-rule:evenodd;stroke:none"
         transform="matrix(1.3333333,0,0,-1.3333333,243.78453,492.47653)"
         clip-path="url(#clipPath34)" />
    </g>
  </g>
</svg>
